<?xml version="1.0" standalone="no"?>
<!DOCTYPE svg PUBLIC "-//W3C//DTD SVG 20010904//EN"
 "http://www.w3.org/TR/2001/REC-SVG-20010904/DTD/svg10.dtd">
<svg version="1.0" xmlns="http://www.w3.org/2000/svg"
 width="2230.000000pt" height="2230.000000pt" viewBox="0 0 2230.000000 2230.000000"
 preserveAspectRatio="xMidYMid meet">
<metadata>
Created by potrace 1.14, written by Peter Selinger 2001-2017
</metadata>
<g transform="translate(0.000000,2230.000000) scale(0.100000,-0.100000)"
fill="#000000" stroke="none">
<path d="M12208 21555 c-2 -1 -70 -6 -153 -9 -82 -3 -168 -8 -190 -10 -22 -3
-78 -7 -125 -11 -152 -11 -336 -29 -405 -40 -16 -3 -52 -7 -80 -10 -27 -3 -65
-8 -82 -10 -18 -3 -50 -7 -70 -10 -21 -3 -51 -7 -68 -10 -16 -3 -48 -7 -70
-10 -22 -4 -47 -8 -55 -10 -8 -3 -33 -7 -55 -10 -43 -5 -299 -52 -325 -60 -8
-2 -33 -6 -55 -10 -22 -3 -58 -10 -80 -16 -22 -6 -51 -13 -65 -15 -14 -3 -33
-7 -42 -10 -10 -3 -30 -8 -45 -10 -149 -27 -646 -168 -938 -266 -721 -241
-1369 -540 -2040 -941 -218 -130 -595 -381 -800 -533 -88 -65 -162 -121 -165
-124 -3 -3 -23 -19 -45 -36 -50 -36 -296 -236 -351 -283 -22 -20 -53 -48 -70
-62 -210 -181 -297 -262 -544 -509 -208 -207 -377 -386 -455 -480 -21 -25 -40
-47 -44 -50 -3 -3 -28 -32 -55 -65 -27 -33 -54 -64 -60 -70 -7 -5 -29 -32 -51
-60 -22 -27 -48 -59 -57 -70 -9 -11 -64 -81 -122 -155 -58 -74 -109 -139 -114
-145 -16 -20 -189 -261 -212 -295 -13 -19 -27 -37 -30 -40 -11 -10 -267 -403
-305 -468 -6 -9 -49 -82 -96 -162 -253 -426 -510 -946 -684 -1385 -26 -66 -51
-129 -56 -140 -43 -97 -182 -504 -248 -725 -82 -272 -184 -666 -207 -800 -3
-14 -7 -33 -10 -42 -3 -10 -7 -30 -10 -45 -3 -16 -14 -71 -24 -123 -11 -52
-29 -151 -40 -220 -12 -69 -23 -136 -26 -150 -2 -14 -6 -45 -10 -70 -3 -25 -7
-56 -10 -70 -4 -26 -11 -78 -18 -140 -2 -19 -7 -55 -11 -80 -3 -25 -7 -61 -9
-80 -2 -19 -7 -66 -10 -105 -4 -38 -9 -83 -11 -100 -2 -16 -7 -73 -10 -125 -4
-52 -8 -106 -11 -119 -11 -71 -19 -389 -19 -726 0 -327 4 -448 20 -726 3 -56
15 -190 21 -247 3 -24 7 -62 9 -85 5 -65 14 -145 26 -232 6 -44 13 -96 15
-115 11 -96 75 -482 98 -595 2 -11 12 -56 21 -100 9 -44 28 -129 42 -190 13
-60 26 -117 28 -125 9 -38 56 -222 74 -285 10 -38 28 -104 40 -145 67 -247
276 -857 341 -995 5 -11 38 -90 74 -175 264 -635 659 -1347 1059 -1910 75
-105 279 -383 287 -390 3 -3 21 -25 40 -50 41 -53 164 -204 223 -274 23 -27
50 -58 60 -70 10 -11 36 -41 57 -66 21 -25 48 -56 60 -70 76 -88 232 -252 405
-425 331 -332 520 -503 840 -760 1023 -823 2188 -1445 3420 -1825 159 -49 460
-134 515 -145 8 -2 80 -19 160 -38 130 -31 345 -78 425 -92 17 -2 41 -7 55
-10 33 -7 362 -61 421 -69 25 -4 57 -9 70 -11 21 -3 106 -14 244 -30 22 -2 67
-7 100 -10 33 -3 77 -8 98 -10 21 -3 78 -7 125 -10 48 -3 105 -8 127 -10 221
-26 1288 -26 1446 0 13 2 67 6 119 10 52 3 109 8 125 10 17 2 60 7 97 10 37 3
77 8 90 10 13 2 48 6 78 10 79 9 120 14 160 19 19 3 55 8 80 11 25 4 99 15
165 26 66 11 134 22 150 24 44 7 236 45 360 71 38 9 81 18 95 20 332 65 1197
326 1455 439 17 7 90 37 163 66 72 28 132 54 132 56 0 2 -44 46 -97 98 -149
142 -489 468 -767 737 -196 189 -206 196 -230 189 -11 -4 -93 -30 -181 -58
-203 -65 -454 -136 -591 -168 -11 -2 -46 -11 -79 -19 -62 -15 -326 -71 -386
-81 -19 -3 -52 -10 -74 -15 -22 -5 -62 -12 -90 -16 -27 -3 -59 -8 -70 -10 -10
-2 -37 -6 -60 -9 -22 -3 -51 -8 -65 -11 -14 -2 -45 -6 -69 -9 -25 -2 -81 -9
-125 -15 -161 -22 -223 -29 -324 -36 -37 -2 -85 -6 -107 -8 -252 -27 -1100
-28 -1370 -1 -35 3 -163 15 -220 21 -130 12 -162 15 -185 20 -14 2 -45 6 -70
9 -25 3 -56 6 -70 8 -14 2 -50 8 -80 12 -30 4 -64 9 -75 11 -10 2 -37 6 -60 9
-56 8 -381 71 -490 94 -856 186 -1778 542 -2517 972 -36 22 -69 39 -73 39 -3
0 -11 5 -18 10 -15 13 -238 150 -243 150 -3 0 -10 5 -17 10 -7 6 -82 57 -168
114 -224 148 -585 412 -639 466 -3 3 -41 34 -85 70 -44 35 -82 67 -85 70 -3 3
-34 30 -70 60 -200 169 -624 582 -800 779 -41 46 -80 89 -85 95 -6 6 -35 40
-65 76 -30 36 -58 67 -61 70 -13 12 -221 273 -290 365 -162 215 -399 556 -399
574 0 5 -3 11 -8 13 -6 2 -53 74 -107 166 -121 202 -172 291 -254 444 -54 101
-193 379 -221 443 -12 28 -32 73 -45 100 -46 100 -146 336 -149 350 -1 6 -10
28 -20 50 -29 67 -192 527 -207 583 -1 4 -3 12 -5 17 -22 61 -122 424 -139
505 -1 8 -8 35 -15 60 -7 25 -14 52 -15 60 -41 190 -77 359 -80 375 -1 11 -5
34 -8 50 -21 111 -56 339 -72 465 -3 25 -8 56 -10 70 -2 14 -7 52 -10 85 -3
33 -8 78 -10 100 -3 22 -8 72 -11 110 -3 39 -7 86 -9 105 -26 301 -27 1196 0
1370 2 14 6 61 9 105 4 44 8 100 11 125 3 25 8 65 10 90 7 73 15 143 20 170 2
14 7 45 10 70 6 45 22 150 30 203 12 66 14 84 20 117 9 53 14 82 20 110 3 14
8 39 11 55 29 161 155 692 170 717 3 4 7 16 9 27 22 115 199 630 308 896 127
310 304 688 411 875 14 25 30 54 35 66 8 18 86 155 111 194 5 8 18 33 30 54
70 130 328 522 477 726 18 25 37 50 41 55 49 69 282 364 351 445 215 253 624
677 830 860 46 41 89 80 95 85 47 43 180 157 216 185 24 19 60 49 80 65 20 17
53 44 75 60 21 17 61 48 89 70 159 127 458 336 686 479 69 44 136 86 150 95
14 9 34 21 45 27 11 6 36 20 55 32 115 68 381 213 517 281 150 75 351 171 358
171 2 0 32 13 67 29 259 118 652 262 1018 375 235 73 738 193 969 232 18 3 43
8 55 10 11 2 37 7 56 10 19 3 46 7 60 10 14 2 57 9 96 14 39 5 100 14 135 19
35 5 91 12 123 16 33 3 73 7 90 10 45 6 120 13 206 20 41 3 89 8 105 10 201
26 1201 26 1366 0 13 -2 62 -6 109 -10 47 -3 99 -8 115 -10 17 -2 55 -7 85
-10 62 -6 207 -23 260 -31 19 -3 62 -9 95 -14 33 -5 78 -12 100 -15 22 -3 51
-8 65 -11 14 -2 36 -6 50 -9 14 -3 50 -9 80 -15 30 -6 69 -13 85 -16 81 -15
321 -68 410 -90 55 -14 109 -28 120 -30 11 -2 70 -18 130 -35 61 -17 124 -34
140 -39 216 -58 749 -248 977 -349 275 -120 640 -296 684 -328 21 -15 54 19
-426 -443 -100 -96 -224 -215 -275 -265 -51 -49 -131 -127 -177 -171 l-84 -81
-104 47 c-58 25 -177 75 -265 109 -88 35 -169 67 -180 71 -21 9 -125 46 -205
73 -99 34 -299 97 -355 112 -232 63 -514 131 -610 149 -16 2 -57 10 -90 16
-33 6 -69 13 -80 14 -19 2 -84 13 -130 22 -11 2 -40 6 -65 9 -25 3 -57 8 -72
11 -15 3 -42 7 -60 9 -18 2 -60 6 -93 10 -73 9 -90 11 -185 20 -41 4 -93 8
-115 11 -272 26 -928 26 -1235 -1 -132 -11 -211 -19 -290 -29 -25 -3 -70 -8
-100 -12 -30 -3 -134 -19 -230 -35 -250 -42 -259 -44 -346 -64 -34 -8 -73 -16
-85 -19 -87 -16 -273 -63 -459 -116 -92 -25 -377 -117 -405 -130 -11 -5 -31
-12 -45 -16 -66 -17 -438 -168 -606 -244 -136 -62 -331 -160 -469 -236 -77
-42 -158 -86 -180 -98 -22 -11 -42 -24 -45 -27 -3 -3 -16 -12 -30 -19 -53 -28
-315 -194 -318 -202 -2 -4 -8 -8 -12 -8 -15 0 -467 -323 -490 -350 -3 -3 -25
-21 -50 -40 -53 -41 -78 -61 -94 -75 -6 -6 -58 -50 -116 -99 -280 -235 -610
-566 -878 -881 -147 -172 -411 -525 -532 -710 -36 -55 -68 -101 -72 -103 -5
-2 -8 -7 -8 -12 0 -4 -26 -50 -59 -101 -56 -90 -133 -221 -199 -340 -58 -104
-212 -413 -212 -425 0 -6 -6 -17 -14 -23 -8 -7 -17 -23 -20 -36 -3 -13 -22
-58 -41 -99 -19 -42 -35 -78 -35 -81 0 -3 -9 -24 -19 -48 -36 -78 -72 -168
-127 -321 -30 -83 -59 -160 -63 -172 -8 -19 -105 -332 -136 -439 -19 -66 -89
-358 -110 -460 -9 -44 -19 -89 -21 -100 -3 -11 -7 -31 -9 -45 -2 -14 -11 -62
-19 -107 -8 -45 -17 -99 -21 -120 -3 -21 -7 -48 -9 -59 -4 -18 -11 -68 -21
-154 -2 -14 -6 -52 -10 -85 -3 -33 -8 -76 -10 -95 -2 -19 -7 -62 -10 -95 -3
-33 -8 -78 -10 -100 -13 -117 -20 -334 -20 -620 0 -330 9 -542 31 -744 3 -30
8 -77 10 -105 3 -28 7 -61 9 -72 2 -12 6 -48 10 -80 4 -33 9 -70 11 -84 3 -14
7 -42 9 -62 2 -20 11 -79 20 -130 9 -51 18 -106 21 -123 3 -16 18 -93 35 -170
16 -77 32 -151 34 -165 3 -14 25 -101 50 -195 25 -93 47 -180 50 -191 14 -60
148 -470 171 -521 8 -17 14 -34 14 -38 0 -24 221 -547 242 -572 6 -7 8 -13 5
-13 -8 0 157 -322 248 -485 162 -289 357 -589 563 -865 64 -85 119 -157 122
-160 3 -3 37 -43 75 -90 76 -93 80 -97 186 -220 187 -214 529 -555 704 -701
62 -52 74 -62 98 -85 31 -29 203 -167 317 -252 52 -40 100 -75 105 -80 63 -49
479 -332 489 -332 2 0 51 -29 110 -65 58 -36 108 -65 111 -65 3 0 26 -13 52
-29 132 -80 430 -230 676 -340 26 -11 67 -30 92 -41 25 -11 47 -20 50 -20 3 0
24 -9 48 -19 197 -90 803 -289 1051 -346 12 -3 41 -9 66 -15 25 -6 54 -12 65
-15 11 -3 29 -7 40 -9 11 -2 40 -9 65 -15 25 -5 61 -13 80 -16 19 -3 42 -8 50
-10 8 -2 29 -7 45 -10 17 -3 42 -7 58 -10 53 -9 143 -24 187 -31 66 -10 81
-12 120 -18 62 -9 104 -15 165 -21 33 -3 69 -8 80 -10 11 -2 58 -7 105 -10 47
-4 101 -9 120 -11 134 -13 311 -18 615 -18 317 0 409 3 615 19 87 7 210 19
295 30 22 3 65 8 95 11 30 3 62 7 70 9 8 2 38 7 65 10 28 4 57 8 65 10 8 3 33
7 55 10 22 3 65 10 95 16 53 9 70 12 135 24 89 18 351 78 355 82 3 3 -53 61
-125 130 -117 112 -426 410 -576 553 -31 30 -146 141 -254 245 -109 105 -207
198 -218 208 -22 19 -34 19 -252 0 -49 -4 -238 -8 -420 -8 -332 0 -468 6 -667
29 -27 4 -67 8 -90 11 -44 5 -188 24 -223 29 -11 2 -40 7 -65 10 -38 6 -404
80 -450 91 -522 125 -1127 362 -1572 614 -59 34 -112 61 -118 61 -5 0 -10 4
-10 8 0 4 -19 18 -42 30 -24 12 -70 40 -103 62 -33 22 -67 43 -75 47 -17 8
-217 142 -254 170 -13 10 -37 27 -52 38 -46 32 -155 115 -214 162 -30 25 -62
50 -70 56 -225 179 -543 487 -775 752 -38 44 -72 82 -75 85 -4 4 -119 148
-163 205 -4 6 -17 21 -28 35 -12 14 -46 61 -77 105 -31 44 -59 82 -62 85 -4 3
-43 61 -88 130 -45 69 -86 130 -92 137 -5 7 -10 17 -10 23 0 5 -4 10 -10 10
-5 0 -10 5 -10 10 0 6 -27 55 -60 109 -33 55 -60 102 -60 106 0 4 -9 19 -19
34 -37 52 -228 437 -287 579 -8 17 -20 47 -28 65 -8 17 -30 75 -51 127 -20 52
-41 104 -45 115 -5 11 -12 31 -15 45 -4 14 -13 39 -20 55 -14 31 -94 284 -116
365 -7 25 -14 50 -15 55 -3 9 -29 106 -39 145 -7 28 -44 195 -49 220 -2 14 -7
32 -10 40 -3 8 -8 33 -11 54 -3 21 -7 48 -10 60 -7 32 -14 74 -26 156 -6 41
-12 77 -14 80 -2 3 -6 39 -10 80 -4 41 -8 77 -10 80 -4 7 -14 109 -32 335 -16
196 -9 786 11 985 2 19 7 67 10 106 4 39 9 82 11 95 3 13 7 51 10 84 3 33 8
67 10 75 3 8 7 33 10 55 6 43 49 281 60 330 3 16 13 61 21 100 18 84 16 75 49
200 14 55 36 132 47 170 12 39 22 75 23 80 15 71 192 550 261 703 42 93 211
432 250 502 73 130 219 368 292 475 79 116 284 393 322 435 12 14 34 41 49 60
14 19 31 40 36 46 6 6 37 42 70 80 210 240 513 536 713 700 13 10 36 29 50 42
63 55 417 315 522 384 498 326 974 555 1535 740 83 27 157 51 165 53 8 2 65
17 125 33 142 38 166 44 190 49 11 2 56 12 100 23 86 20 217 46 279 56 21 3
47 7 56 9 10 2 40 7 67 11 26 3 56 8 67 10 10 2 44 6 75 10 31 3 63 8 72 9 9
2 52 6 95 10 43 4 93 9 109 11 153 19 821 26 995 10 47 -4 103 -9 125 -11 45
-4 141 -14 195 -20 19 -3 58 -7 85 -10 28 -3 73 -10 100 -15 28 -5 68 -12 90
-14 22 -3 54 -8 70 -11 121 -23 205 -40 250 -50 11 -3 52 -12 90 -21 237 -53
705 -197 705 -216 0 -6 -59 -67 -131 -137 -73 -69 -169 -162 -214 -206 -45
-44 -171 -165 -280 -270 -108 -104 -237 -228 -285 -275 -48 -47 -179 -173
-290 -280 -112 -107 -235 -226 -275 -265 -40 -38 -161 -155 -270 -260 -108
-104 -245 -237 -303 -293 -59 -57 -187 -181 -286 -275 -98 -95 -218 -210 -266
-257 -48 -47 -179 -173 -290 -280 -112 -107 -246 -237 -299 -288 -53 -51 -165
-159 -249 -240 -84 -81 -197 -190 -251 -242 -54 -52 -187 -180 -295 -285 -108
-104 -245 -237 -304 -293 -59 -57 -178 -172 -265 -255 -87 -84 -200 -192 -251
-242 -51 -49 -196 -189 -321 -310 -444 -428 -509 -491 -606 -585 -54 -52 -161
-156 -238 -230 l-141 -134 98 -94 c53 -51 156 -151 228 -220 71 -70 221 -215
333 -322 111 -107 255 -246 319 -307 64 -62 120 -113 124 -113 5 0 6 -4 3 -10
-3 -5 -2 -10 3 -10 4 0 71 -61 148 -135 76 -75 215 -208 308 -298 93 -89 204
-196 246 -237 43 -41 169 -163 280 -270 111 -107 243 -235 294 -283 50 -48
181 -174 290 -280 110 -106 222 -214 250 -242 28 -27 79 -75 113 -106 33 -32
58 -60 55 -63 -3 -3 -1 -6 5 -6 6 0 63 -51 127 -113 64 -63 116 -113 116 -113
0 1 51 -48 114 -109 63 -60 205 -198 316 -305 111 -107 242 -233 290 -280 143
-139 464 -448 563 -543 51 -49 180 -173 287 -277 107 -103 260 -250 339 -326
79 -77 176 -170 216 -209 40 -38 164 -158 275 -265 112 -107 279 -270 371
-361 93 -91 250 -244 350 -340 100 -96 214 -205 254 -244 116 -112 454 -437
489 -470 95 -89 283 -269 454 -434 107 -102 226 -217 265 -255 40 -38 182
-175 317 -306 135 -131 270 -261 300 -290 30 -29 143 -137 250 -240 107 -103
218 -209 245 -235 28 -26 67 -63 88 -83 l37 -36 0 7019 0 7018 -97 -95 c-54
-53 -121 -118 -149 -144 -28 -27 -147 -141 -264 -254 -117 -113 -225 -216
-240 -230 -15 -14 -124 -119 -243 -234 l-217 -210 0 -4968 c0 -3968 -3 -4968
-12 -4968 -7 0 -76 62 -153 136 -187 182 -552 535 -645 624 -73 70 -390 376
-591 570 -54 52 -187 181 -295 285 -109 105 -235 226 -280 270 -85 83 -423
410 -554 535 -41 39 -167 161 -280 270 -113 109 -239 231 -280 270 -77 74
-356 343 -618 597 -81 79 -148 143 -149 143 -1 0 -46 44 -101 98 -55 53 -189
183 -297 287 -109 105 -244 235 -301 290 -57 55 -183 177 -280 270 -97 94
-220 213 -274 265 -54 52 -187 181 -295 285 -109 105 -240 231 -290 280 -51
50 -168 162 -259 250 -91 87 -166 164 -166 171 0 6 70 78 155 160 86 82 213
205 284 274 71 69 206 199 301 290 94 91 220 212 280 270 59 58 194 188 299
290 219 211 251 242 571 550 128 124 268 259 310 300 43 41 107 103 143 137
35 34 63 64 60 66 -2 3 14 22 35 43 37 37 369 356 478 460 29 27 143 137 254
244 111 107 223 215 249 240 26 25 144 138 262 251 118 114 237 228 265 255
51 49 397 382 504 484 31 30 153 148 271 261 118 114 235 226 260 250 55 52
375 360 705 679 77 74 223 214 323 310 240 229 253 241 491 470 224 215 236
226 504 485 103 99 219 209 257 246 l69 65 0 895 0 895 -111 63 c-269 154
-622 332 -929 469 -241 108 -623 254 -895 343 -104 34 -199 65 -210 69 -59 23
-499 144 -635 175 -8 2 -37 9 -65 15 -27 6 -61 14 -75 16 -14 3 -41 9 -60 14
-64 16 -409 84 -495 97 -16 2 -68 10 -115 18 -47 7 -106 16 -131 20 -25 3 -57
8 -70 10 -13 2 -67 9 -119 15 -52 6 -108 13 -125 15 -16 2 -61 7 -100 10 -38
3 -86 8 -105 10 -44 5 -130 13 -245 21 -49 3 -121 8 -160 11 -78 5 -922 13
-927 8z"/>
</g>
</svg>
